<mxfile host="app.diagrams.net" modified="2021-10-07T14:16:47.085Z" agent="5.0 (Macintosh; Intel Mac OS X 10_15_7) AppleWebKit/537.36 (KHTML, like Gecko) Chrome/94.0.4606.71 Safari/537.36" etag="Yd5eQ_q8Z5_Ui5GU5lz6" version="15.4.3" type="github">
  <diagram id="C5RBs43oDa-KdzZeNtuy" name="Page-1">
    <mxGraphModel dx="1214" dy="1128" grid="1" gridSize="10" guides="1" tooltips="1" connect="1" arrows="1" fold="1" page="1" pageScale="1" pageWidth="827" pageHeight="1169" math="0" shadow="0">
      <root>
        <mxCell id="WIyWlLk6GJQsqaUBKTNV-0" />
        <mxCell id="WIyWlLk6GJQsqaUBKTNV-1" parent="WIyWlLk6GJQsqaUBKTNV-0" />
        <mxCell id="WIyWlLk6GJQsqaUBKTNV-2" value="" style="rounded=0;html=1;jettySize=auto;orthogonalLoop=1;fontSize=11;endArrow=block;endFill=0;endSize=8;strokeWidth=1;shadow=0;labelBackgroundColor=none;edgeStyle=orthogonalEdgeStyle;" parent="WIyWlLk6GJQsqaUBKTNV-1" source="WIyWlLk6GJQsqaUBKTNV-3" target="WIyWlLk6GJQsqaUBKTNV-6" edge="1">
          <mxGeometry relative="1" as="geometry" />
        </mxCell>
        <mxCell id="WIyWlLk6GJQsqaUBKTNV-3" value="Start Game" style="rounded=1;whiteSpace=wrap;html=1;fontSize=12;glass=0;strokeWidth=1;shadow=0;" parent="WIyWlLk6GJQsqaUBKTNV-1" vertex="1">
          <mxGeometry x="340" y="50" width="120" height="40" as="geometry" />
        </mxCell>
        <mxCell id="WIyWlLk6GJQsqaUBKTNV-4" value="No" style="rounded=0;html=1;jettySize=auto;orthogonalLoop=1;fontSize=11;endArrow=block;endFill=0;endSize=8;strokeWidth=1;shadow=0;labelBackgroundColor=none;edgeStyle=orthogonalEdgeStyle;" parent="WIyWlLk6GJQsqaUBKTNV-1" source="WIyWlLk6GJQsqaUBKTNV-6" target="WIyWlLk6GJQsqaUBKTNV-10" edge="1">
          <mxGeometry y="20" relative="1" as="geometry">
            <mxPoint as="offset" />
          </mxGeometry>
        </mxCell>
        <mxCell id="T1tBva81fQfY2rR0bvwv-17" value="Yes" style="edgeStyle=orthogonalEdgeStyle;rounded=0;orthogonalLoop=1;jettySize=auto;html=1;exitX=1;exitY=0.5;exitDx=0;exitDy=0;entryX=0;entryY=0.5;entryDx=0;entryDy=0;entryPerimeter=0;" edge="1" parent="WIyWlLk6GJQsqaUBKTNV-1" source="WIyWlLk6GJQsqaUBKTNV-6" target="T1tBva81fQfY2rR0bvwv-3">
          <mxGeometry relative="1" as="geometry" />
        </mxCell>
        <mxCell id="WIyWlLk6GJQsqaUBKTNV-6" value="Does the dealer have a natural 21?" style="rhombus;whiteSpace=wrap;html=1;shadow=0;fontFamily=Helvetica;fontSize=12;align=center;strokeWidth=1;spacing=6;spacingTop=-4;" parent="WIyWlLk6GJQsqaUBKTNV-1" vertex="1">
          <mxGeometry x="340" y="240" width="120" height="110" as="geometry" />
        </mxCell>
        <mxCell id="WIyWlLk6GJQsqaUBKTNV-7" value="Game Over. It&#39;s a draw." style="rounded=1;whiteSpace=wrap;html=1;fontSize=12;glass=0;strokeWidth=1;shadow=0;" parent="WIyWlLk6GJQsqaUBKTNV-1" vertex="1">
          <mxGeometry x="680" y="230" width="120" height="40" as="geometry" />
        </mxCell>
        <mxCell id="T1tBva81fQfY2rR0bvwv-18" value="Yes" style="edgeStyle=orthogonalEdgeStyle;rounded=0;orthogonalLoop=1;jettySize=auto;html=1;exitX=1;exitY=0.5;exitDx=0;exitDy=0;entryX=0;entryY=0.5;entryDx=0;entryDy=0;entryPerimeter=0;" edge="1" parent="WIyWlLk6GJQsqaUBKTNV-1" source="WIyWlLk6GJQsqaUBKTNV-10" target="T1tBva81fQfY2rR0bvwv-13">
          <mxGeometry relative="1" as="geometry" />
        </mxCell>
        <mxCell id="T1tBva81fQfY2rR0bvwv-20" style="edgeStyle=orthogonalEdgeStyle;rounded=0;orthogonalLoop=1;jettySize=auto;html=1;exitX=0.5;exitY=1;exitDx=0;exitDy=0;entryX=0.5;entryY=0;entryDx=0;entryDy=0;entryPerimeter=0;" edge="1" parent="WIyWlLk6GJQsqaUBKTNV-1" source="WIyWlLk6GJQsqaUBKTNV-10" target="T1tBva81fQfY2rR0bvwv-19">
          <mxGeometry relative="1" as="geometry" />
        </mxCell>
        <mxCell id="T1tBva81fQfY2rR0bvwv-21" value="No" style="edgeLabel;html=1;align=center;verticalAlign=middle;resizable=0;points=[];" vertex="1" connectable="0" parent="T1tBva81fQfY2rR0bvwv-20">
          <mxGeometry x="-0.2444" y="1" relative="1" as="geometry">
            <mxPoint as="offset" />
          </mxGeometry>
        </mxCell>
        <mxCell id="WIyWlLk6GJQsqaUBKTNV-10" value="Does the player have a natural 21?" style="rhombus;whiteSpace=wrap;html=1;shadow=0;fontFamily=Helvetica;fontSize=12;align=center;strokeWidth=1;spacing=6;spacingTop=-4;" parent="WIyWlLk6GJQsqaUBKTNV-1" vertex="1">
          <mxGeometry x="340" y="400" width="120" height="105" as="geometry" />
        </mxCell>
        <mxCell id="T1tBva81fQfY2rR0bvwv-0" value="Deal 2 cards face up to the player." style="rounded=1;whiteSpace=wrap;html=1;" vertex="1" parent="WIyWlLk6GJQsqaUBKTNV-1">
          <mxGeometry x="340" y="110" width="120" height="50" as="geometry" />
        </mxCell>
        <mxCell id="T1tBva81fQfY2rR0bvwv-1" value="Deal 1 card face up and 1 card face down to the dealer" style="rounded=1;whiteSpace=wrap;html=1;" vertex="1" parent="WIyWlLk6GJQsqaUBKTNV-1">
          <mxGeometry x="340" y="170" width="120" height="50" as="geometry" />
        </mxCell>
        <mxCell id="T1tBva81fQfY2rR0bvwv-6" style="edgeStyle=orthogonalEdgeStyle;rounded=0;orthogonalLoop=1;jettySize=auto;html=1;exitX=1;exitY=0.5;exitDx=0;exitDy=0;exitPerimeter=0;" edge="1" parent="WIyWlLk6GJQsqaUBKTNV-1" source="T1tBva81fQfY2rR0bvwv-3">
          <mxGeometry relative="1" as="geometry">
            <mxPoint x="680" y="340" as="targetPoint" />
          </mxGeometry>
        </mxCell>
        <mxCell id="T1tBva81fQfY2rR0bvwv-8" value="No" style="edgeLabel;html=1;align=center;verticalAlign=middle;resizable=0;points=[];" vertex="1" connectable="0" parent="T1tBva81fQfY2rR0bvwv-6">
          <mxGeometry x="0.1048" y="-2" relative="1" as="geometry">
            <mxPoint as="offset" />
          </mxGeometry>
        </mxCell>
        <mxCell id="T1tBva81fQfY2rR0bvwv-15" style="edgeStyle=orthogonalEdgeStyle;rounded=0;orthogonalLoop=1;jettySize=auto;html=1;exitX=1;exitY=0.5;exitDx=0;exitDy=0;exitPerimeter=0;entryX=0;entryY=0.5;entryDx=0;entryDy=0;" edge="1" parent="WIyWlLk6GJQsqaUBKTNV-1" source="T1tBva81fQfY2rR0bvwv-3" target="WIyWlLk6GJQsqaUBKTNV-7">
          <mxGeometry relative="1" as="geometry" />
        </mxCell>
        <mxCell id="T1tBva81fQfY2rR0bvwv-16" value="Yes" style="edgeLabel;html=1;align=center;verticalAlign=middle;resizable=0;points=[];" vertex="1" connectable="0" parent="T1tBva81fQfY2rR0bvwv-15">
          <mxGeometry x="0.2762" relative="1" as="geometry">
            <mxPoint as="offset" />
          </mxGeometry>
        </mxCell>
        <mxCell id="T1tBva81fQfY2rR0bvwv-3" value="Do they both&lt;br&gt;have 21?" style="strokeWidth=2;html=1;shape=mxgraph.flowchart.decision;whiteSpace=wrap;" vertex="1" parent="WIyWlLk6GJQsqaUBKTNV-1">
          <mxGeometry x="520" y="245" width="100" height="100" as="geometry" />
        </mxCell>
        <mxCell id="T1tBva81fQfY2rR0bvwv-7" value="Game Over. Dealer Wins." style="rounded=1;whiteSpace=wrap;html=1;fontSize=12;glass=0;strokeWidth=1;shadow=0;" vertex="1" parent="WIyWlLk6GJQsqaUBKTNV-1">
          <mxGeometry x="680" y="320" width="120" height="40" as="geometry" />
        </mxCell>
        <mxCell id="T1tBva81fQfY2rR0bvwv-9" value="Yes" style="edgeStyle=orthogonalEdgeStyle;rounded=0;html=1;jettySize=auto;orthogonalLoop=1;fontSize=11;endArrow=block;endFill=0;endSize=8;strokeWidth=1;shadow=0;labelBackgroundColor=none;startArrow=none;" edge="1" parent="WIyWlLk6GJQsqaUBKTNV-1" source="T1tBva81fQfY2rR0bvwv-13" target="T1tBva81fQfY2rR0bvwv-10">
          <mxGeometry y="10" relative="1" as="geometry">
            <mxPoint as="offset" />
          </mxGeometry>
        </mxCell>
        <mxCell id="T1tBva81fQfY2rR0bvwv-10" value="Game Over. It&#39;s a draw." style="rounded=1;whiteSpace=wrap;html=1;fontSize=12;glass=0;strokeWidth=1;shadow=0;" vertex="1" parent="WIyWlLk6GJQsqaUBKTNV-1">
          <mxGeometry x="680" y="387.5" width="120" height="40" as="geometry" />
        </mxCell>
        <mxCell id="T1tBva81fQfY2rR0bvwv-11" style="edgeStyle=orthogonalEdgeStyle;rounded=0;orthogonalLoop=1;jettySize=auto;html=1;exitX=1;exitY=0.5;exitDx=0;exitDy=0;exitPerimeter=0;" edge="1" parent="WIyWlLk6GJQsqaUBKTNV-1" source="T1tBva81fQfY2rR0bvwv-13">
          <mxGeometry relative="1" as="geometry">
            <mxPoint x="680" y="497.5" as="targetPoint" />
          </mxGeometry>
        </mxCell>
        <mxCell id="T1tBva81fQfY2rR0bvwv-12" value="No" style="edgeLabel;html=1;align=center;verticalAlign=middle;resizable=0;points=[];" vertex="1" connectable="0" parent="T1tBva81fQfY2rR0bvwv-11">
          <mxGeometry x="0.1048" y="-2" relative="1" as="geometry">
            <mxPoint as="offset" />
          </mxGeometry>
        </mxCell>
        <mxCell id="T1tBva81fQfY2rR0bvwv-13" value="Do they both&lt;br&gt;have 21?" style="strokeWidth=2;html=1;shape=mxgraph.flowchart.decision;whiteSpace=wrap;" vertex="1" parent="WIyWlLk6GJQsqaUBKTNV-1">
          <mxGeometry x="520" y="402.5" width="100" height="100" as="geometry" />
        </mxCell>
        <mxCell id="T1tBva81fQfY2rR0bvwv-14" value="Game Over. Player Wins." style="rounded=1;whiteSpace=wrap;html=1;fontSize=12;glass=0;strokeWidth=1;shadow=0;" vertex="1" parent="WIyWlLk6GJQsqaUBKTNV-1">
          <mxGeometry x="680" y="477.5" width="120" height="40" as="geometry" />
        </mxCell>
        <mxCell id="T1tBva81fQfY2rR0bvwv-22" style="edgeStyle=orthogonalEdgeStyle;rounded=0;orthogonalLoop=1;jettySize=auto;html=1;exitX=0;exitY=0.5;exitDx=0;exitDy=0;exitPerimeter=0;" edge="1" parent="WIyWlLk6GJQsqaUBKTNV-1" source="T1tBva81fQfY2rR0bvwv-19">
          <mxGeometry relative="1" as="geometry">
            <mxPoint x="280" y="680" as="targetPoint" />
          </mxGeometry>
        </mxCell>
        <mxCell id="T1tBva81fQfY2rR0bvwv-25" value="Hit" style="edgeLabel;html=1;align=center;verticalAlign=middle;resizable=0;points=[];" vertex="1" connectable="0" parent="T1tBva81fQfY2rR0bvwv-22">
          <mxGeometry x="0.2267" relative="1" as="geometry">
            <mxPoint as="offset" />
          </mxGeometry>
        </mxCell>
        <mxCell id="T1tBva81fQfY2rR0bvwv-23" style="edgeStyle=orthogonalEdgeStyle;rounded=0;orthogonalLoop=1;jettySize=auto;html=1;exitX=1;exitY=0.5;exitDx=0;exitDy=0;exitPerimeter=0;" edge="1" parent="WIyWlLk6GJQsqaUBKTNV-1" source="T1tBva81fQfY2rR0bvwv-19">
          <mxGeometry relative="1" as="geometry">
            <mxPoint x="520" y="680" as="targetPoint" />
          </mxGeometry>
        </mxCell>
        <mxCell id="T1tBva81fQfY2rR0bvwv-24" value="Stand" style="edgeLabel;html=1;align=center;verticalAlign=middle;resizable=0;points=[];" vertex="1" connectable="0" parent="T1tBva81fQfY2rR0bvwv-23">
          <mxGeometry x="0.12" y="-1" relative="1" as="geometry">
            <mxPoint as="offset" />
          </mxGeometry>
        </mxCell>
        <mxCell id="T1tBva81fQfY2rR0bvwv-19" value="Ask Player;&lt;br&gt;Stand or Hit" style="strokeWidth=2;html=1;shape=mxgraph.flowchart.decision;whiteSpace=wrap;" vertex="1" parent="WIyWlLk6GJQsqaUBKTNV-1">
          <mxGeometry x="350" y="550" width="100" height="100" as="geometry" />
        </mxCell>
        <mxCell id="T1tBva81fQfY2rR0bvwv-31" value="" style="edgeStyle=orthogonalEdgeStyle;rounded=0;orthogonalLoop=1;jettySize=auto;html=1;" edge="1" parent="WIyWlLk6GJQsqaUBKTNV-1" source="T1tBva81fQfY2rR0bvwv-27" target="T1tBva81fQfY2rR0bvwv-30">
          <mxGeometry relative="1" as="geometry" />
        </mxCell>
        <mxCell id="T1tBva81fQfY2rR0bvwv-32" value="No" style="edgeLabel;html=1;align=center;verticalAlign=middle;resizable=0;points=[];" vertex="1" connectable="0" parent="T1tBva81fQfY2rR0bvwv-31">
          <mxGeometry x="-0.2571" relative="1" as="geometry">
            <mxPoint as="offset" />
          </mxGeometry>
        </mxCell>
        <mxCell id="T1tBva81fQfY2rR0bvwv-36" value="" style="edgeStyle=orthogonalEdgeStyle;rounded=0;orthogonalLoop=1;jettySize=auto;html=1;" edge="1" parent="WIyWlLk6GJQsqaUBKTNV-1" source="T1tBva81fQfY2rR0bvwv-27" target="T1tBva81fQfY2rR0bvwv-35">
          <mxGeometry relative="1" as="geometry" />
        </mxCell>
        <mxCell id="T1tBva81fQfY2rR0bvwv-27" value="Is dealer card&lt;br&gt;&amp;gt;=17" style="strokeWidth=2;html=1;shape=mxgraph.flowchart.decision;whiteSpace=wrap;" vertex="1" parent="WIyWlLk6GJQsqaUBKTNV-1">
          <mxGeometry x="470" y="680" width="100" height="100" as="geometry" />
        </mxCell>
        <mxCell id="T1tBva81fQfY2rR0bvwv-30" value="Deal card to dealer until total is &amp;gt;=17" style="whiteSpace=wrap;html=1;strokeWidth=2;" vertex="1" parent="WIyWlLk6GJQsqaUBKTNV-1">
          <mxGeometry x="640" y="700" width="120" height="60" as="geometry" />
        </mxCell>
        <mxCell id="T1tBva81fQfY2rR0bvwv-39" value="" style="edgeStyle=orthogonalEdgeStyle;rounded=0;orthogonalLoop=1;jettySize=auto;html=1;" edge="1" parent="WIyWlLk6GJQsqaUBKTNV-1" source="T1tBva81fQfY2rR0bvwv-35" target="T1tBva81fQfY2rR0bvwv-38">
          <mxGeometry relative="1" as="geometry" />
        </mxCell>
        <mxCell id="T1tBva81fQfY2rR0bvwv-40" value="Yes" style="edgeLabel;html=1;align=center;verticalAlign=middle;resizable=0;points=[];" vertex="1" connectable="0" parent="T1tBva81fQfY2rR0bvwv-39">
          <mxGeometry x="-0.2286" y="1" relative="1" as="geometry">
            <mxPoint as="offset" />
          </mxGeometry>
        </mxCell>
        <mxCell id="T1tBva81fQfY2rR0bvwv-42" value="" style="edgeStyle=orthogonalEdgeStyle;rounded=0;orthogonalLoop=1;jettySize=auto;html=1;" edge="1" parent="WIyWlLk6GJQsqaUBKTNV-1" source="T1tBva81fQfY2rR0bvwv-35" target="T1tBva81fQfY2rR0bvwv-41">
          <mxGeometry relative="1" as="geometry" />
        </mxCell>
        <mxCell id="T1tBva81fQfY2rR0bvwv-43" value="Equal to dealer" style="edgeLabel;html=1;align=center;verticalAlign=middle;resizable=0;points=[];" vertex="1" connectable="0" parent="T1tBva81fQfY2rR0bvwv-42">
          <mxGeometry x="-0.219" y="1" relative="1" as="geometry">
            <mxPoint as="offset" />
          </mxGeometry>
        </mxCell>
        <mxCell id="T1tBva81fQfY2rR0bvwv-45" value="" style="edgeStyle=orthogonalEdgeStyle;rounded=0;orthogonalLoop=1;jettySize=auto;html=1;" edge="1" parent="WIyWlLk6GJQsqaUBKTNV-1" source="T1tBva81fQfY2rR0bvwv-35" target="T1tBva81fQfY2rR0bvwv-44">
          <mxGeometry relative="1" as="geometry" />
        </mxCell>
        <mxCell id="T1tBva81fQfY2rR0bvwv-46" value="No" style="edgeLabel;html=1;align=center;verticalAlign=middle;resizable=0;points=[];" vertex="1" connectable="0" parent="T1tBva81fQfY2rR0bvwv-45">
          <mxGeometry x="-0.0105" y="-1" relative="1" as="geometry">
            <mxPoint as="offset" />
          </mxGeometry>
        </mxCell>
        <mxCell id="T1tBva81fQfY2rR0bvwv-35" value="Is Player hand &amp;gt; Dealer" style="rhombus;whiteSpace=wrap;html=1;strokeWidth=2;" vertex="1" parent="WIyWlLk6GJQsqaUBKTNV-1">
          <mxGeometry x="460" y="820" width="150" height="110" as="geometry" />
        </mxCell>
        <mxCell id="T1tBva81fQfY2rR0bvwv-38" value="Game Over. Player wins." style="whiteSpace=wrap;html=1;strokeWidth=2;" vertex="1" parent="WIyWlLk6GJQsqaUBKTNV-1">
          <mxGeometry x="680" y="845" width="120" height="60" as="geometry" />
        </mxCell>
        <mxCell id="T1tBva81fQfY2rR0bvwv-41" value="Game Over. Draw." style="whiteSpace=wrap;html=1;strokeWidth=2;" vertex="1" parent="WIyWlLk6GJQsqaUBKTNV-1">
          <mxGeometry x="475" y="1035" width="120" height="60" as="geometry" />
        </mxCell>
        <mxCell id="T1tBva81fQfY2rR0bvwv-44" value="Game over. Dealer wins" style="whiteSpace=wrap;html=1;strokeWidth=2;" vertex="1" parent="WIyWlLk6GJQsqaUBKTNV-1">
          <mxGeometry x="330" y="950" width="120" height="60" as="geometry" />
        </mxCell>
      </root>
    </mxGraphModel>
  </diagram>
</mxfile>
